<?xml version="1.0" encoding="UTF-8"?>
<svg id="Layer_1" xmlns="http://www.w3.org/2000/svg" xmlns:xlink="http://www.w3.org/1999/xlink" version="1.1" viewBox="0 0 1920 490">
  <!-- Generator: Adobe Illustrator 29.4.0, SVG Export Plug-In . SVG Version: 2.1.0 Build 152)  -->
  <defs>
    <style>
      .st0, .st1, .st2, .st3, .st4, .st5, .st6, .st7, .st8, .st9, .st10, .st11, .st12, .st13, .st14, .st15, .st16, .st17, .st18, .st19, .st20, .st21, .st22, .st23, .st24, .st25, .st26, .st27, .st28 {
        fill: none;
      }

      .st1 {
        stroke-opacity: .9;
      }

      .st1, .st2, .st3, .st4, .st5, .st6, .st7, .st8, .st9, .st10, .st11, .st12, .st13, .st14, .st15, .st16, .st17, .st18, .st19, .st20, .st21, .st22, .st23, .st24, .st25, .st26, .st27, .st28 {
        stroke: #ea7dff;
        stroke-linecap: round;
        stroke-linejoin: round;
        stroke-width: 10px;
      }

      .st2 {
        stroke-opacity: .9;
      }

      .st3 {
        stroke-opacity: 1;
      }

      .st4 {
        stroke-opacity: .9;
      }

      .st5 {
        stroke-opacity: .7;
      }

      .st6 {
        stroke-opacity: .8;
      }

      .st7 {
        stroke-opacity: .7;
      }

      .st8 {
        stroke-opacity: .7;
      }

      .st9 {
        stroke-opacity: .6;
      }

      .st10 {
        stroke-opacity: .7;
      }

      .st29 {
        fill: #32006d;
      }

      .st30 {
        opacity: .5;
      }

      .st12 {
        stroke-opacity: .5;
      }

      .st13 {
        stroke-opacity: .5;
      }

      .st14 {
        stroke-opacity: .8;
      }

      .st15 {
        stroke-opacity: .5;
      }

      .st16 {
        stroke-opacity: .8;
      }

      .st17 {
        stroke-opacity: .9;
      }

      .st18 {
        stroke-opacity: .2;
      }

      .st19 {
        stroke-opacity: .4;
      }

      .st20 {
        stroke-opacity: .4;
      }

      .st21 {
        stroke-opacity: .4;
      }

      .st22 {
        stroke-opacity: .3;
      }

      .st23 {
        stroke-opacity: .3;
      }

      .st24 {
        stroke-opacity: .6;
      }

      .st25 {
        stroke-opacity: .5;
      }

      .st26 {
        stroke-opacity: .6;
      }

      .st27 {
        stroke-opacity: .3;
      }

      .st28 {
        stroke-opacity: .3;
      }

      .st31 {
        clip-path: url(#clippath);
      }
    </style>
    <clipPath id="clippath">
      <rect class="st0" y="0" width="1920" height="490"/>
    </clipPath>
  </defs>
  <g class="st31">
    <g>
      <rect class="st29" y="0" width="1920" height="490"/>
      <g class="st30">
        <path class="st11" d="M1920,380.3l-95.1,416.4-266.4,333.9-384.9,185.3h-427.2l-384.9-185.3L95.1,796.7,0,380.3,95.1-36.1l266.4-333.9,384.9-185.3h427.2l384.9,185.3L1824.9-36.1l95.1,416.4"/>
        <path class="st3" d="M1890,345.7l-94.9,402.8-260.3,321.7-374.2,177-413.9-2.8-371.7-182.1-255.8-325.3L30,332.9,124.8-69.9l260.3-321.8,374.1-177,413.9,2.8,371.7,182.1,255.8,325.3,89.3,404.1"/>
        <path class="st1" d="M1860.5,312.2l-94.5,389.4-254.2,309.8-363.5,168.9-400.7-5.5-358.7-178.8-245.6-316.7L59.5,287.5,154.1-101.8l254.2-309.8,363.4-168.9,400.7,5.5,358.7,178.8,245.6,316.7,83.8,391.8"/>
        <path class="st4" d="M1831.3,280l-94.1,376.2-248,298.1-352.8,161-387.8-8-345.9-175.4-235.5-308.1L88.7,244.2l94.1-376.2,248-298.1,352.8-161,387.8,8,345.9,175.4,235.5,308.1,78.5,379.7"/>
        <path class="st2" d="M1802.6,249l-93.5,363.2-241.8,286.7-342.3,153.4-375-10.3-333.4-171.9-225.8-299.5L117.4,202.8l93.5-363.2,241.8-286.7,342.3-153.4,375,10.3,333.4,171.9,225.8,299.5,73.4,367.8"/>
        <path class="st17" d="M1774.3,219.3l-92.8,350.5-235.7,275.5-331.9,146-362.4-12.4-321.1-168.4-216.2-291-68.5-356,92.8-350.4,235.7-275.5,331.9-146,362.4,12.4,321.1,168.4,216.2,291,68.5,356"/>
        <path class="st14" d="M1746.4,190.8l-91.9,337.9-229.5,264.6-321.6,138.8-350-14.4-309.1-164.8-206.9-282.5-63.8-344.3,91.9-337.9,229.5-264.6,321.6-138.8,350,14.4,309.1,164.8,206.9,282.5,63.8,344.3"/>
        <path class="st16" d="M1718.9,163.5l-91,325.6-223.3,253.9-311.3,131.9-337.8-16.2-297.3-161.1-197.9-274.1-59.3-332.8,91-325.6,223.3-253.9,311.4-131.9,337.8,16.2,297.3,161.1,197.9,274.1,59.3,332.8"/>
        <path class="st6" d="M1691.9,137.6l-89.9,313.5-217.1,243.5-301.2,125.2-325.7-17.9-285.7-157.4-189.1-265.8L228.1,57.2l89.9-313.5,217.1-243.5,301.2-125.2,325.7,17.9,285.7,157.4,189.1,265.8,55,321.5"/>
        <path class="st5" d="M1665.3,112.8l-88.8,301.6-210.9,233.3-291.2,118.7-313.9-19.4-274.4-153.6-180.5-257.4L254.7,25.7l88.8-301.6,210.9-233.3,291.2-118.7,313.9,19.4,274.4,153.6,180.6,257.4,50.9,310.3"/>
        <path class="st7" d="M1639.2,89.4l-87.5,290-204.7,223.3-281.3,112.4-302.3-20.8-263.3-149.8-172.2-249.2L280.8-3.9l87.5-290,204.7-223.3,281.3-112.4,302.3,20.8,263.3,149.8,172.2,249.2,47,299.2"/>
        <path class="st8" d="M1613.4,67.3l-86.1,278.6-198.5,213.6-271.5,106.4-290.8-22-252.5-145.9-164.1-241L306.5-31.5l86.1-278.6,198.5-213.6,271.5-106.4,290.8,22,252.5,145.9,164.1,241,43.3,288.3"/>
        <path class="st10" d="M1588.2,46.4l-84.7,267.4-192.3,204.1-261.9,100.5-279.6-23-241.9-142-156.3-232.9-39.7-277.6,84.7-267.4,192.3-204.1,261.9-100.5,279.6,23,241.9,142,156.3,232.9,39.7,277.6"/>
        <path class="st9" d="M1563.4,26.9l-83.2,256.4-186.2,194.9-252.3,94.9-268.5-24-231.5-138.1-148.7-224.8-36.4-267.1,83.1-256.4,186.2-194.9,252.3-94.9,268.5,24,231.5,138.1,148.7,224.8,36.4,267.1"/>
        <path class="st26" d="M1539,8.7l-81.5,245.6-180.1,185.9-242.9,89.4-257.7-24.8-221.4-134.1-141.3-216.9-33.1-256.7,81.5-245.6,180.1-185.9,242.9-89.4,257.7,24.8,221.4,134.1,141.3,216.9,33.2,256.7"/>
        <path class="st24" d="M1515.1-8.2l-79.8,235.1-173.9,177.2-233.6,84.2-247-25.5-211.5-130.1-134.1-209-30.1-246.4,79.8-235.1,174-177.2,233.6-84.2,247,25.5,211.5,130.1,134.1,209,30.1,246.4"/>
        <path class="st12" d="M1491.6-23.8l-78,224.8-167.9,168.7-224.5,79.2-236.6-26.1-201.8-126.1-127.1-201.2-27.2-236.4,78.1-224.8,167.9-168.7,224.5-79.2,236.6,26.1,201.8,126.1,127.1,201.2,27.2,236.4"/>
        <path class="st25" d="M1468.6-38l-76.2,214.7-161.8,160.4-215.4,74.3-226.3-26.5-192.4-122.1-120.4-193.4-24.5-226.5,76.2-214.7,161.8-160.4,215.4-74.3,226.3,26.5,192.4,122.1,120.4,193.4,24.5,226.5"/>
        <path class="st13" d="M1446-50.8l-74.3,204.9-155.8,152.3-206.5,69.7-216.3-26.8-183.2-118-113.9-185.8-22-216.8,74.3-204.9,155.8-152.3,206.5-69.7,216.3,26.8,183.2,118,113.9,185.8,22,216.8"/>
        <path class="st15" d="M1423.9-62.3l-72.3,195.2-149.9,144.5-197.8,65.2-206.5-27-174.3-113.9-107.6-178.2-19.6-207.3,72.3-195.2,149.9-144.5,197.8-65.2,206.5,27,174.3,113.9,107.6,178.2,19.6,207.3"/>
        <path class="st21" d="M1402.3-72.4l-70.3,185.8-144,136.9-189.1,60.9-196.8-27.2-165.6-109.9L535,3.4l-17.3-197.9,70.3-185.8,144-136.9,189.1-60.9,196.8,27.2,165.6,109.9,101.5,170.8,17.3,197.9"/>
        <path class="st19" d="M1381.1-81.2l-68.2,176.6-138.1,129.6-180.7,56.8-187.4-27.2-157.1-105.8L554.1-14.5l-15.2-188.7,68.2-176.6,138.1-129.6,180.7-56.8,187.4,27.2,157.1,105.8,95.6,163.4,15.2,188.7"/>
        <path class="st20" d="M1360.4-88.5l-66.1,167.7-132.3,122.4-172.3,52.9-178.2-27.1-148.8-101.7-89.9-156.2-13.2-179.7,66.1-167.7,132.3-122.4,172.3-52.9,178.2,27.1,148.8,101.7,89.9,156.2,13.2,179.7"/>
        <path class="st22" d="M1340.2-94.4l-63.9,158.9-126.5,115.5-164.1,49.2-169.2-26.9-140.8-97.6-84.5-149-11.4-170.9,63.9-158.9,126.5-115.5,164.1-49.2,169.2,26.9,140.8,97.6,84.5,149,11.4,170.9"/>
        <path class="st23" d="M1320.4-98.9l-61.7,150.4-120.8,108.8-156.1,45.6-160.4-26.6-133-93.6-79.2-142-9.7-162.3,61.7-150.4,120.8-108.8,156.1-45.6,160.4,26.6,133,93.6,79.2,142,9.7,162.3"/>
        <path class="st27" d="M1301.2-102l-59.4,142.1-115.2,102.3-148.2,42.2-151.8-26.3-125.4-89.5-74.1-135.1-8.2-153.8,59.4-142.1,115.2-102.3,148.2-42.2,151.8,26.3,125.4,89.5,74.1,135.1,8.2,153.8"/>
        <path class="st28" d="M1282.3-103.7l-57.1,134.1-109.6,96-140.5,38.9-143.5-25.8-118-85.5-69.2-128.2-6.7-145.6,57.1-134.1,109.6-96,140.5-38.9,143.5,25.8,118,85.5,69.2,128.2,6.7,145.6"/>
        <path class="st18" d="M1264-103.9l-54.8,126.2-104.2,89.9-132.9,35.9-135.3-25.3-110.9-81.5-64.5-121.5-5.4-137.5,54.8-126.2,104.2-90,132.9-35.9,135.3,25.3,110.9,81.5,64.5,121.5,5.4,137.5"/>
      </g>
    </g>
  </g>
</svg>