<?xml version="1.0" encoding="UTF-8"?>
<svg id="Layer_1" xmlns="http://www.w3.org/2000/svg" xmlns:xlink="http://www.w3.org/1999/xlink" version="1.1" viewBox="0 0 1920 490">
  <!-- Generator: Adobe Illustrator 29.4.0, SVG Export Plug-In . SVG Version: 2.1.0 Build 152)  -->
  <defs>
    <style>
      .st0, .st1, .st2, .st3, .st4, .st5, .st6, .st7, .st8, .st9, .st10, .st11, .st12, .st13, .st14, .st15, .st16, .st17, .st18 {
        fill: none;
      }

      .st19 {
        fill: #ea7dff;
      }

      .st1 {
        stroke-opacity: .9;
      }

      .st1, .st2, .st3, .st4, .st5, .st6, .st7, .st8, .st9, .st10, .st11, .st12, .st13, .st14, .st15, .st16, .st17, .st18 {
        stroke-linecap: round;
        stroke-linejoin: round;
        stroke-width: 16.6px;
      }

      .st1, .st2, .st3, .st4, .st5, .st14, .st15, .st16, .st17, .st18 {
        stroke: #ea7dff;
      }

      .st2 {
        stroke-opacity: .9;
      }

      .st3 {
        stroke-opacity: .8;
      }

      .st4 {
        stroke-opacity: .7;
      }

      .st5 {
        stroke-opacity: 1;
      }

      .st6 {
        stroke-opacity: .6;
      }

      .st6, .st7, .st8, .st9, .st10, .st11, .st12, .st13 {
        stroke: #08f2db;
      }

      .st7 {
        stroke-opacity: .2;
      }

      .st8 {
        stroke-opacity: .4;
      }

      .st9 {
        stroke-opacity: .4;
      }

      .st10 {
        stroke-opacity: .7;
      }

      .st11 {
        stroke-opacity: .3;
      }

      .st12 {
        stroke-opacity: .6;
      }

      .st13 {
        stroke-opacity: .5;
      }

      .st14 {
        stroke-opacity: .8;
      }

      .st16 {
        stroke-opacity: .3;
      }

      .st17 {
        stroke-opacity: .6;
      }

      .st18 {
        stroke-opacity: .5;
      }

      .st20 {
        clip-path: url(#clippath);
      }
    </style>
    <clipPath id="clippath">
      <rect class="st0" y="0" width="1920" height="490"/>
    </clipPath>
  </defs>
  <g class="st20">
    <g>
      <rect class="st19" y="0" width="1920" height="490"/>
      <path class="st15" d="M2355,405.1l-7.7,112.9-23,110.8-37.9,106.6-52.1,100.5-65.2,92.4-77.2,82.7-87.8,71.4-96.7,58.8-103.8,45.1-108.9,30.5-112.1,15.4h-113.1l-112.1-15.4-108.9-30.5-103.8-45.1-96.7-58.8-87.8-71.4-77.2-82.7-65.2-92.4-52.1-100.5-37.9-106.6-23-110.8-7.7-112.9,7.7-112.9,23-110.8,37.9-106.6,52.1-100.5,65.2-92.4,77.2-82.7,87.8-71.4,96.7-58.8,103.8-45.1,108.9-30.5,112.1-15.4h113.1l112.1,15.4,108.9,30.5,103.8,45.1,96.7,58.8,87.8,71.4,77.2,82.7,65.2,92.4,52.1,100.5,37.9,106.6,23,110.8,7.7,112.9"/>
      <path class="st5" d="M2280.5,520.5l-25.9,101.4-39.4,97-52.3,90.7-64.1,82.7-74.8,73.2-84.1,62.4-91.8,50.3-97.8,37.4-102,23.7-104.2,9.6-104.6-4.7-103-18.9-99.4-32.7-94.1-46-86.9-58.3-78.2-69.6-68-79.6-56.5-88.1-44-95-30.6-100.1-16.7-103.4-2.5-104.7,11.8-104,25.9-101.4,39.4-97,52.3-90.7,64.1-82.7,74.8-73.2,84.1-62.4,91.8-50.3,97.8-37.4,102-23.7,104.3-9.6,104.6,4.7,103,18.9,99.4,32.7,94.1,46,86.9,58.3,78.2,69.6,68,79.6,56.5,88.1,44,95,30.6,100.1,16.7,103.4,2.5,104.7-11.8,104"/>
      <path class="st1" d="M2187.4,612.4l-40.3,87.7-51.9,81.4-62.5,73.6-71.9,64.4-80,54-86.7,42.6-91.6,30.4-94.9,17.6-96.4,4.6-96.2-8.6-94.1-21.7-90.3-34.2-84.8-46.2-77.7-57.3-69.2-67.4-59.3-76.2-48.4-83.5-36.6-89.4-24.1-93.5-11.1-95.9,2-96.5,15.2-95.4,28-92.4,40.3-87.7,51.9-81.4,62.5-73.6,72-64.4,80-54,86.7-42.6,91.6-30.4,94.9-17.6,96.4-4.5,96.2,8.6,94.1,21.6,90.3,34.3,84.8,46.2,77.7,57.3,69.1,67.4,59.3,76.2,48.4,83.5,36.6,89.4,24.1,93.5,11.1,95.9-2,96.5-15.2,95.4-28,92.4"/>
      <path class="st2" d="M2082.3,679.4l-51,72.6-60.4,65-68.7,56.2-75.7,46.3-81.3,35.5-85.4,24.1-87.9,12.3-88.7.2-87.9-11.9-85.5-23.7-81.5-35.2-75.9-45.9-69-55.8-60.7-64.7-51.3-72.4-41-78.7-29.9-83.5-18.3-86.8-6.3-88.5,5.8-88.5,17.8-86.9,29.5-83.7,40.6-78.9,51-72.6,60.4-65,68.7-56.2,75.7-46.3,81.3-35.5,85.4-24.1,87.9-12.3,88.7-.2,87.9,11.9,85.5,23.7,81.5,35.2,75.9,45.9,69,55.8,60.7,64.7,51.3,72.4,41,78.7,29.9,83.5,18.3,86.8,6.3,88.5-5.8,88.5-17.8,86.9-29.5,83.7-40.6,78.9"/>
      <path class="st14" d="M1971.4,721.3l-57.9,57-65.1,48.6-71.1,39.2-75.8,29.2-79.1,18.6-80.9,7.6-81.2-3.4-79.9-14.5-77.2-25.2-73.1-35.5-67.6-45.1-60.8-53.9-52.9-61.7-44-68.3-34.3-73.6-23.9-77.6-13.1-80.2-2.1-81.2,9-80.7,19.9-78.8,30.4-75.3,40.4-70.5,49.6-64.3,57.9-57,65.1-48.6,71.1-39.2,75.8-29.2,79.1-18.6,80.9-7.6,81.2,3.4,79.9,14.5,77.2,25.2,73.1,35.5,67.6,45.1,60.8,53.9,52.9,61.7,44,68.3,34.3,73.6,23.9,77.6,13.1,80.2,2.1,81.2-9,80.7-19.9,78.8-30.4,75.3-40.4,70.5-49.6,64.3"/>
      <path class="st3" d="M1860.4,739.5l-61.3,41.6-66.4,32.8-70.2,23.5-72.8,13.7-74,3.7-73.8-6.4-72.2-16.4-69.3-26.1-65.1-35.3-59.7-43.8-53.2-51.5-45.7-58.3-37.3-64-28.2-68.5-18.6-71.7-8.7-73.5,1.4-74,11.5-73.2,21.3-70.9,30.8-67.4,39.6-62.5,47.8-56.6,55.1-49.5,61.3-41.6,66.4-32.8,70.2-23.5,72.8-13.7,74-3.7,73.8,6.4,72.2,16.4,69.3,26.1,65.1,35.3,59.7,43.8,53.2,51.5,45.6,58.3,37.3,64,28.2,68.5,18.6,71.7,8.7,73.5-1.4,74-11.5,73.2-21.3,70.9-30.8,67.4-39.6,62.5-47.8,56.6-55.1,49.5"/>
      <path class="st4" d="M1754.5,736.1l-61.5,27.1-64.6,18.4-66.5,9.5-67.2.3-66.6-8.8-64.8-17.8-61.7-26.5-57.6-34.6-52.3-42.1-46.1-48.9-39-54.7-31.2-59.5-22.8-63.2-14-65.7-4.9-67,4.3-67,13.3-65.8,22.2-63.4,30.6-59.8,38.5-55.1,45.6-49.3,51.9-42.6,57.2-35.2,61.5-27.1,64.6-18.4,66.5-9.5,67.2-.3,66.6,8.8,64.8,17.8,61.7,26.5,57.6,34.6,52.3,42.1,46.1,48.9,39,54.7,31.2,59.5,22.8,63.2,14,65.7,4.9,67-4.3,67-13.3,65.8-22.2,63.4-30.6,59.8-38.5,55.1-45.6,49.3-51.9,42.6-57.2,35.2"/>
      <path class="st10" d="M1657.9,714.4l-59,14-60.3,5.9-60.6-2.4-59.7-10.6-57.7-18.7-54.6-26.4-50.5-33.5-45.5-40.1-39.6-45.9-33-50.9-25.7-54.9-18-57.9-9.9-59.8-1.7-60.6,6.5-60.3,14.7-58.8,22.6-56.3,30-52.7,36.9-48.1,43.1-42.6,48.5-36.4,53-29.4,56.5-21.9,59-14,60.3-5.9,60.6,2.4,59.7,10.6,57.7,18.7,54.6,26.4,50.5,33.5,45.5,40.1,39.6,45.9,33,50.9,25.7,54.9,18,57.9,9.9,59.8,1.7,60.6-6.5,60.3-14.7,58.8-22.6,56.3-30,52.7-36.9,48.1-43.1,42.6-48.5,36.4-53,29.4-56.5,21.9"/>
      <path class="st6" d="M1573.8,678.1l-54.3,2.8-54.2-4.6-53.1-11.9-50.9-19-47.9-25.8-43.9-32.1-39.1-37.8-33.6-42.7-27.5-46.9-20.8-50.2-13.8-52.6-6.5-54,.9-54.4,8.3-53.8,15.5-52.1,22.5-49.5,29-46,35-41.6,40.4-36.5,44.9-30.6,48.7-24.2,51.5-17.4,53.4-10.2,54.3-2.8,54.2,4.6,53.1,11.9,50.9,19.1,47.9,25.8,43.9,32.1,39.1,37.8,33.6,42.7,27.5,46.9,20.8,50.2,13.8,52.6,6.5,54-.9,54.4-8.3,53.8-15.5,52.1-22.5,49.5-29,46-35,41.6-40.3,36.5-45,30.6-48.7,24.2-51.5,17.4-53.4,10.2"/>
      <path class="st17" d="M1504.3,631.3l-48.1-6.3-46.8-12.7-44.6-19-41.6-24.9-37.8-30.3-33.3-35.2-28.2-39.4-22.6-42.9-16.6-45.6-10.2-47.4-3.7-48.3,3-48.4,9.5-47.5,15.9-45.8,22-43.2,27.7-39.8,32.8-35.7,37.4-30.9,41.2-25.5,44.3-19.6,46.6-13.4,48-6.9,48.5-.3,48.1,6.3,46.8,12.7,44.6,19,41.6,24.9,37.8,30.3,33.3,35.2,28.2,39.4,22.6,42.9,16.6,45.6,10.2,47.4,3.7,48.3-2.9,48.4-9.5,47.5-15.9,45.8-22,43.2-27.7,39.8-32.8,35.7-37.4,30.9-41.2,25.5-44.3,19.6-46.6,13.4-48,6.9-48.5.3"/>
      <path class="st12" d="M1450.6,578.3l-40.8-13.1-38.7-18.5-35.8-23.6-32.2-28.3-28.1-32.4-23.4-35.9-18.3-38.8-12.8-40.9-7.1-42.3-1.3-42.8,4.5-42.6,10.3-41.6,15.9-39.8,21.1-37.3,26-34.1,30.4-30.2,34.2-25.8,37.4-20.9,39.9-15.6,41.7-10,42.7-4.2,42.8,1.6,42.2,7.4,40.8,13.1L1680.9,0l35.8,23.6,32.2,28.3,28.1,32.4,23.4,35.9,18.3,38.8,12.8,40.9,7.1,42.3,1.3,42.9-4.5,42.6-10.3,41.6-15.9,39.8-21.1,37.3-26,34.1-30.4,30.2-34.2,25.8-37.4,20.9-39.9,15.6-41.7,10-42.7,4.2-42.8-1.6-42.2-7.4"/>
      <path class="st13" d="M1412.8,523.1l-33.1-17.8-30.4-22.1-27.1-26-23.3-29.5-19.1-32.4-14.5-34.7-9.6-36.3-4.6-37.3.5-37.6,5.6-37.2,10.7-36,15.5-34.3,20-31.8,24.1-28.8,27.8-25.3,31-21.2,33.6-16.8,35.6-12.1,36.9-7.1,37.5-2,37.5,3.1,36.7,8.2,35.2,13.1,33.1,17.8,30.4,22.1,27.1,26,23.3,29.5,19.1,32.4,14.5,34.7,9.6,36.3,4.6,37.3-.5,37.6-5.6,37.2-10.7,36-15.5,34.3-20,31.8-24.1,28.8-27.8,25.3-31,21.2-33.6,16.8-35.6,12.1-36.9,7.1-37.5,2-37.5-3.1-36.7-8.2-35.2-13.1"/>
      <path class="st18" d="M1390.1,469.4l-25.5-20.3-22.5-23.6-19.1-26.5-15.3-28.8-11.2-30.6-6.9-31.9-2.5-32.5,1.9-32.6,6.3-32,10.6-30.8,14.7-29.1,18.6-26.8,22-24,25.1-20.8,27.7-17.2,29.8-13.3,31.3-9.1,32.3-4.8,32.6-.3,32.4,4.1,31.5,8.5,30,12.7,28,16.7,25.5,20.3,22.5,23.6,19.1,26.5,15.3,28.8,11.2,30.6,6.9,31.9,2.5,32.5-1.9,32.6-6.3,32-10.6,30.8-14.7,29.1-18.6,26.8-22,24-25.1,20.8-27.7,17.2-29.8,13.3-31.3,9.1-32.3,4.8-32.6.3-32.3-4.1-31.5-8.5-30-12.7-28-16.7"/>
      <path class="st8" d="M1381,420.6l-18.4-21.1-15.3-23.4-12-25.3-8.4-26.7-4.7-27.6-.9-27.9,2.9-27.8,6.7-27.2,10.3-26,13.7-24.4,16.9-22.3,19.8-19.8,22.3-16.9,24.4-13.7,26-10.2,27.2-6.6,27.8-2.8,28,1,27.5,4.8,26.7,8.5,25.2,12,23.4,15.4,21.1,18.4,18.4,21.1,15.3,23.4,12,25.3,8.4,26.7,4.7,27.6.9,27.9-2.9,27.8-6.7,27.2-10.3,26-13.7,24.4-16.9,22.3-19.8,19.8-22.3,16.9-24.4,13.7-26,10.2-27.2,6.6-27.8,2.8-28-1-27.6-4.8-26.6-8.5-25.2-12-23.4-15.4-21.1-18.4"/>
      <path class="st9" d="M1383.4,379.2l-12-20.3-9.2-21.8-6.1-22.8-2.9-23.4.3-23.6,3.5-23.4,6.6-22.7,9.7-21.6,12.5-20,15.1-18.2,17.5-15.9,19.5-13.4,21.1-10.6,22.4-7.7,23.2-4.5,23.6-1.3,23.6,1.9,23.1,5.1,22.2,8.2,20.8,11.1,19.2,13.8,17.1,16.3,14.7,18.5,12,20.3,9.2,21.8,6.1,22.8,2.9,23.4-.3,23.6-3.5,23.4-6.6,22.7-9.7,21.6-12.5,20-15.1,18.2-17.5,15.9-19.5,13.4-21.1,10.6-22.4,7.7-23.2,4.5-23.6,1.3-23.6-1.9-23.1-5.1-22.2-8.2-20.9-11.1-19.1-13.8-17.1-16.3-14.7-18.5"/>
      <path class="st16" d="M1394.9,347.1l-6.8-18.4-4.2-19.2-1.6-19.5,1.1-19.6,3.8-19.2,6.3-18.6,8.8-17.5,11.1-16.2,13.2-14.5,15.1-12.6,16.6-10.4,17.9-8,18.8-5.5,19.4-2.9,19.6-.2,19.5,2.4,18.9,5.1,18.1,7.6,16.9,10,15.4,12.2,13.6,14.2,11.5,15.9,9.2,17.3,6.8,18.4,4.2,19.2,1.6,19.5-1.1,19.6-3.8,19.2-6.3,18.6-8.8,17.5-11.1,16.2-13.2,14.5-15.1,12.6-16.6,10.4-17.9,8-18.8,5.5-19.4,2.9-19.6.2-19.5-2.4-18.9-5.1-18.1-7.6-16.9-10-15.4-12.2-13.6-14.2-11.5-15.9-9.2-17.3"/>
      <path class="st11" d="M1412.8,325.5l-2.7-15.7-.6-15.9,1.6-15.8,3.8-15.5,5.8-14.8,7.8-13.9,9.6-12.7,11.2-11.3,12.7-9.6,13.9-7.8,14.8-5.9,15.5-3.8,15.8-1.6,15.9.5,15.7,2.7,15.2,4.8,14.4,6.8,13.3,8.7,12,10.4,10.5,12,8.7,13.3,6.9,14.4,4.8,15.2,2.7,15.7.6,15.9-1.6,15.8-3.8,15.5-5.8,14.8-7.8,13.9-9.6,12.7-11.2,11.3-12.7,9.6-13.9,7.8-14.8,5.9-15.5,3.8-15.8,1.6-15.9-.5-15.7-2.7-15.2-4.8-14.4-6.8-13.3-8.7-12-10.4-10.5-12-8.7-13.3-6.9-14.4-4.8-15.2"/>
      <path class="st7" d="M1434.4,314.8v-12.5c.1,0,1.9-12.4,1.9-12.4l3.5-12,5.1-11.4,6.6-10.6,8-9.6,9.2-8.5,10.3-7.1,11.2-5.7,11.8-4.1,12.3-2.4,12.5-.7,12.5,1,12.2,2.7,11.8,4.3,11.1,5.9,10.2,7.3,9.1,8.6,7.8,9.8,6.4,10.8,4.9,11.5,3.3,12.1,1.6,12.4v12.5c-.1,0-1.9,12.4-1.9,12.4l-3.5,12-5.1,11.4-6.6,10.6-8,9.6-9.2,8.5-10.3,7.1-11.2,5.7-11.8,4.1-12.3,2.4-12.5.7-12.5-1-12.2-2.7-11.8-4.3-11.1-5.9-10.2-7.3-9.1-8.6-7.8-9.8-6.4-10.8-4.9-11.5-3.3-12.1-1.6-12.4"/>
    </g>
  </g>
</svg>