<svg width="1920" height="490" viewBox="0 0 1920 490" fill="none" xmlns="http://www.w3.org/2000/svg">
<g clip-path="url(#clip0_697_659)">
<rect width="1920" height="490" fill="#08F2DB" fill-opacity="0.5"/>
<path d="M2355 405.067L2347.28 517.95L2324.26 628.729L2286.37 735.342L2234.31 835.802L2169.06 928.239L2091.84 1010.93L2004.07 1082.34L1907.39 1141.12L1803.62 1186.2L1694.67 1216.73L1582.57 1232.13H1469.43L1357.33 1216.73L1248.38 1186.2L1144.61 1141.12L1047.93 1082.34L960.163 1010.93L882.935 928.239L817.686 835.802L765.632 735.342L727.742 628.729L704.721 517.95L697 405.067L704.721 292.185L727.742 181.406L765.632 74.7929L817.686 -25.6677L882.935 -118.105L960.163 -200.796L1047.93 -272.201L1144.61 -330.989L1248.38 -376.067L1357.33 -406.593L1469.43 -422H1582.57L1694.67 -406.593L1803.62 -376.067L1907.39 -330.989L2004.07 -272.201L2091.84 -200.796L2169.06 -118.105L2234.31 -25.6677L2286.37 74.7929L2324.26 181.406L2347.28 292.185L2355 405.067" stroke="#EA7DFF" stroke-width="16.58" stroke-linecap="round" stroke-linejoin="round"/>
<path d="M2280.49 520.52L2254.62 621.968L2215.19 718.949L2162.91 809.658L2098.78 892.403L2023.97 965.645L1939.88 1028.02L1848.09 1078.36L1750.3 1115.73L1648.32 1139.44L1544.07 1149.05L1439.48 1144.37L1336.51 1125.49L1237.06 1092.76L1143 1046.8L1056.07 988.459L977.891 918.823L909.925 839.191L853.436 751.046L809.475 656.031L778.862 555.914L762.166 452.561L759.699 347.897L771.507 243.873L797.369 142.425L836.805 45.4433L889.078 -45.2651L953.217 -128.011L1028.02 -201.252L1112.11 -263.625L1203.9 -313.968L1301.7 -351.342L1403.67 -375.052L1507.92 -384.655L1612.51 -379.974L1715.49 -361.095L1814.93 -328.37L1909 -282.408L1995.93 -224.066L2074.1 -154.431L2142.07 -74.7987L2198.56 13.3461L2242.52 108.362L2273.13 208.479L2289.83 311.831L2292.29 416.495L2280.49 520.52" stroke="#EA7DFF" stroke-opacity="0.955556" stroke-width="16.58" stroke-linecap="round" stroke-linejoin="round"/>
<path d="M2187.44 612.444L2147.11 700.173L2095.2 781.592L2032.7 855.186L1960.75 919.582L1880.71 973.583L1794.05 1016.18L1702.41 1046.58L1607.48 1064.22L1511.03 1068.77L1414.86 1060.15L1320.76 1038.5L1230.48 1004.25L1145.71 958.026L1068.02 900.687L998.868 833.303L939.531 757.131L891.119 673.588L854.534 584.232L830.456 490.725L819.336 394.812L821.379 298.277L836.548 202.92L864.56 110.516L904.894 22.7878L956.798 -58.6315L1019.3 -132.225L1091.25 -196.622L1171.29 -250.622L1257.95 -293.22L1349.59 -323.622L1444.52 -341.262L1540.97 -345.811L1637.14 -337.185L1731.24 -315.544L1821.52 -281.291L1906.29 -235.065L1983.98 -177.726L2053.13 -110.343L2112.47 -34.1702L2160.88 49.3725L2197.47 138.729L2221.54 232.235L2232.66 328.149L2230.62 424.684L2215.45 520.041L2187.44 612.444" stroke="#EA7DFF" stroke-opacity="0.911111" stroke-width="16.58" stroke-linecap="round" stroke-linejoin="round"/>
<path d="M2082.32 679.395L2031.32 752.013L1970.91 817.011L1902.21 873.176L1826.5 919.465L1745.19 955.013L1659.81 979.159L1571.93 991.453L1483.19 991.666L1395.25 979.795L1309.75 956.059L1228.27 920.902L1152.34 874.978L1083.38 819.143L1022.65 754.437L971.305 682.065L930.292 603.376L900.375 519.834L882.112 432.997L875.844 344.482L881.687 255.938L899.532 169.015L929.047 85.3306L969.682 6.4448L1020.68 -66.1731L1081.09 -131.17L1149.79 -187.336L1225.5 -233.624L1306.8 -269.173L1392.19 -293.319L1480.07 -305.613L1568.81 -305.826L1656.75 -293.954L1742.25 -270.219L1823.73 -235.062L1899.65 -189.138L1968.62 -133.303L2029.35 -68.5969L2080.69 3.77504L2121.71 82.4646L2151.62 166.006L2169.89 252.843L2176.15 341.358L2170.31 429.902L2152.47 516.826L2122.95 600.51L2082.32 679.395" stroke="#EA7DFF" stroke-opacity="0.866667" stroke-width="16.58" stroke-linecap="round" stroke-linejoin="round"/>
<path d="M1971.38 721.329L1913.48 778.298L1848.35 826.851L1777.22 866.084L1701.41 895.266L1622.33 913.853L1541.45 921.5L1460.29 918.062L1380.36 903.606L1303.13 878.399L1230.06 842.911L1162.5 797.805L1101.71 743.918L1048.83 682.257L1004.83 613.969L970.545 540.326L946.604 462.7L933.457 382.537L931.348 301.331L940.316 220.593L960.194 141.829L990.612 66.5055L1031 -3.97476L1080.62 -68.2986L1138.52 -125.268L1203.65 -173.821L1274.78 -213.054L1350.59 -242.236L1429.67 -260.823L1510.55 -268.469L1591.71 -265.032L1671.64 -250.575L1748.87 -225.369L1821.94 -189.881L1889.5 -144.774L1950.29 -90.8883L2003.17 -29.2268L2047.17 39.0615L2081.45 112.705L2105.4 190.33L2118.54 270.493L2120.65 351.7L2111.68 432.437L2091.81 511.201L2061.39 586.525L2021 657.005L1971.38 721.329" stroke="#EA7DFF" stroke-opacity="0.822222" stroke-width="16.58" stroke-linecap="round" stroke-linejoin="round"/>
<path d="M1860.43 739.464L1799.15 781.024L1732.78 813.851L1662.55 837.335L1589.78 851.038L1515.82 854.704L1442.06 848.266L1369.85 831.843L1300.56 805.742L1235.46 770.448L1175.78 726.619L1122.62 675.071L1076.98 616.765L1039.7 552.786L1011.47 484.327L992.838 412.663L984.133 339.129L985.522 265.094L996.979 191.938L1018.29 121.024L1049.06 53.6718L1088.71 -8.86311L1136.51 -65.416L1191.57 -114.933L1252.86 -156.493L1319.23 -189.32L1389.45 -212.804L1462.22 -226.507L1536.18 -230.174L1609.95 -223.735L1682.15 -207.313L1751.44 -181.211L1816.54 -145.917L1876.22 -102.088L1929.38 -50.5399L1975.03 7.76625L2012.31 71.7446L2040.53 140.204L2059.17 211.868L2067.87 285.402L2066.48 359.437L2055.02 432.592L2033.71 503.507L2002.94 570.859L1963.29 633.394L1915.49 689.947L1860.43 739.464" stroke="#EA7DFF" stroke-opacity="0.777778" stroke-width="16.58" stroke-linecap="round" stroke-linejoin="round"/>
<path d="M1754.54 736.099L1693.06 763.159L1628.46 781.594L1561.95 791.062L1494.77 791.385L1428.18 782.557L1363.4 764.744L1301.66 738.276L1244.09 703.647L1191.78 661.503L1145.69 612.627L1106.68 557.931L1075.49 498.434L1052.69 435.243L1038.71 369.536L1033.8 302.537L1038.06 235.494L1051.41 169.655L1073.61 106.248L1104.23 46.4536L1142.7 -8.61474L1188.32 -57.931L1240.23 -100.577L1297.46 -135.757L1358.94 -162.817L1423.54 -181.252L1490.05 -190.719L1557.23 -191.042L1623.82 -182.214L1688.6 -164.401L1750.34 -137.933L1807.91 -103.305L1860.22 -61.1602L1906.31 -12.2847L1945.32 42.4113L1976.51 101.909L1999.31 165.1L2013.29 230.807L2018.2 297.806L2013.94 364.849L2000.59 430.687L1978.39 494.094L1947.77 553.889L1909.3 608.957L1863.68 658.274L1811.77 700.919L1754.54 736.099" stroke="#EA7DFF" stroke-opacity="0.733333" stroke-width="16.58" stroke-linecap="round" stroke-linejoin="round"/>
<path d="M1657.93 714.385L1598.94 728.399L1538.6 734.25L1478.02 731.831L1418.34 721.185L1360.66 702.511L1306.06 676.157L1255.56 642.615L1210.1 602.508L1170.52 556.584L1137.56 505.698L1111.84 450.799L1093.83 392.908L1083.88 333.105L1082.16 272.503L1088.7 212.232L1103.4 153.414L1125.96 97.1438L1155.98 44.471L1192.89 -3.62386L1236.01 -46.2447L1284.53 -82.5976L1337.54 -112.005L1394.07 -133.92L1453.05 -147.934L1513.4 -153.785L1573.98 -151.366L1633.66 -140.72L1691.34 -122.046L1745.94 -95.6922L1796.44 -62.1495L1841.9 -22.0426L1881.48 23.8815L1914.44 74.7671L1940.16 129.667L1958.17 187.557L1968.12 247.36L1969.84 307.962L1963.29 368.233L1948.6 427.052L1926.03 483.321L1896.01 535.994L1859.1 584.089L1815.99 626.71L1767.47 663.063L1714.45 692.47L1657.93 714.385" stroke="#08F2DB" stroke-opacity="0.688889" stroke-width="16.58" stroke-linecap="round" stroke-linejoin="round"/>
<path d="M1573.8 678.082L1519.48 680.905L1465.29 676.307L1412.22 664.371L1361.28 645.321L1313.4 619.511L1269.48 587.423L1230.34 549.653L1196.71 506.906L1169.22 459.977L1148.37 409.742L1134.55 357.136L1128.03 303.138L1128.92 248.754L1137.2 194.999L1152.73 142.872L1175.21 93.3459L1204.23 47.3421L1239.24 5.71785L1279.59 -30.7514L1324.54 -61.3863L1373.23 -85.6163L1424.77 -102.99L1478.2 -113.183L1532.52 -116.007L1586.71 -111.408L1639.78 -99.4727L1690.72 -80.4225L1738.6 -54.6128L1782.52 -22.5243L1821.65 15.2453L1855.29 57.9924L1882.78 104.921L1903.63 155.156L1917.45 207.763L1923.97 261.761L1923.08 316.144L1914.8 369.899L1899.27 422.026L1876.78 471.552L1847.77 517.556L1812.76 559.18L1772.4 595.65L1727.46 626.285L1678.77 650.515L1627.23 667.888L1573.8 678.082" stroke="#08F2DB" stroke-opacity="0.644444" stroke-width="16.58" stroke-linecap="round" stroke-linejoin="round"/>
<path d="M1504.32 631.302L1456.25 625.048L1409.48 612.308L1364.89 593.318L1323.29 568.432L1285.47 538.114L1252.13 502.928L1223.89 463.531L1201.28 420.655L1184.72 375.1L1174.52 327.715L1170.86 279.381L1173.82 231L1183.34 183.472L1199.24 137.683L1221.23 94.4865L1248.9 54.6861L1281.73 19.0236L1319.11 -11.8366L1360.34 -37.3196L1404.66 -56.9508L1451.24 -70.3644L1499.21 -77.3107L1547.68 -77.6601L1595.75 -71.4062L1642.51 -58.6655L1687.11 -39.6753L1728.71 -14.7894L1766.52 15.5287L1799.86 50.7141L1828.1 90.1115L1850.71 132.987L1867.27 178.542L1877.48 225.927L1881.13 274.261L1878.17 322.642L1868.65 370.17L1852.75 415.959L1830.76 459.156L1803.1 498.956L1770.27 534.619L1732.89 565.479L1691.66 590.962L1647.34 610.593L1600.76 624.007L1552.79 630.953L1504.32 631.302" stroke="#EA7DFF" stroke-opacity="0.6" stroke-width="16.58" stroke-linecap="round" stroke-linejoin="round"/>
<path d="M1450.6 578.264L1409.79 565.158L1371.13 546.615L1335.37 522.983L1303.15 494.7L1275.08 462.293L1251.69 426.367L1233.41 387.591L1220.58 346.686L1213.44 304.416L1212.12 261.566L1216.65 218.936L1226.94 177.32L1242.8 137.492L1263.94 100.196L1289.96 66.1243L1320.37 35.9133L1354.62 10.1252L1392.06 -10.7596L1431.99 -26.3519L1473.67 -36.3614L1516.33 -40.6016L1559.17 -38.9935L1601.4 -31.5671L1642.21 -18.4606L1680.86 0.0817003L1716.63 23.7144L1748.85 51.9974L1776.91 84.4037L1800.3 120.33L1818.59 159.106L1831.42 200.011L1838.56 242.281L1839.88 285.131L1835.35 327.761L1825.06 369.377L1809.2 409.205L1788.06 446.501L1762.04 480.573L1731.63 510.784L1697.38 536.572L1659.94 557.457L1620.01 573.049L1578.32 583.059L1535.66 587.299L1492.82 585.691L1450.6 578.264" stroke="#08F2DB" stroke-opacity="0.555556" stroke-width="16.58" stroke-linecap="round" stroke-linejoin="round"/>
<path d="M1412.78 523.053L1379.65 505.298L1349.25 483.197L1322.14 457.163L1298.83 427.68L1279.75 395.298L1265.26 360.619L1255.63 324.29L1251.03 286.988L1251.56 249.407L1257.19 212.248L1267.84 176.202L1283.29 141.941L1303.26 110.104L1327.39 81.283L1355.21 56.0153L1386.22 34.7716L1419.83 17.9476L1455.41 5.85671L1492.31 -1.27587L1529.84 -3.31726L1567.3 -0.229426L1603.99 7.93011L1639.22 21.0094L1672.35 38.7647L1702.75 60.8653L1729.86 86.8995L1753.17 116.382L1772.25 148.765L1786.74 183.443L1796.37 219.772L1800.97 257.074L1800.44 294.655L1794.81 331.815L1784.16 367.861L1768.71 402.121L1748.74 433.959L1724.61 462.78L1696.79 488.047L1665.78 509.291L1632.17 526.115L1596.59 538.206L1559.69 545.339L1522.16 547.38L1484.7 544.292L1448.01 536.132L1412.78 523.053" stroke="#08F2DB" stroke-opacity="0.511111" stroke-width="16.58" stroke-linecap="round" stroke-linejoin="round"/>
<path d="M1390.07 469.419L1364.58 449.079L1342.09 425.457L1323.02 398.993L1307.74 370.179L1296.52 339.553L1289.58 307.684L1287.04 275.167L1288.95 242.606L1295.28 210.61L1305.91 179.774L1320.63 150.671L1339.19 123.845L1361.22 99.7953L1386.32 78.9694L1414.02 61.7555L1443.81 48.4742L1475.13 39.373L1507.4 34.6214L1540.02 34.3079L1572.37 38.4383L1603.86 46.9358L1633.9 59.642L1661.93 76.3202L1687.43 96.6597L1709.92 120.282L1728.98 146.746L1744.26 175.56L1755.48 206.187L1762.42 238.055L1764.96 270.573L1763.05 303.133L1756.72 335.129L1746.09 365.965L1731.37 395.068L1712.82 421.894L1690.78 445.944L1665.68 466.77L1637.98 483.984L1608.19 497.265L1576.87 506.366L1544.6 511.118L1511.99 511.431L1479.63 507.301L1448.14 498.803L1418.1 486.097L1390.07 469.419" stroke="#EA7DFF" stroke-opacity="0.466667" stroke-width="16.58" stroke-linecap="round" stroke-linejoin="round"/>
<path d="M1380.98 420.603L1362.62 399.508L1347.31 376.11L1335.32 350.844L1326.89 324.181L1322.17 296.619L1321.24 268.669L1324.13 240.854L1330.77 213.691L1341.06 187.686L1354.79 163.324L1371.7 141.058L1391.5 121.303L1413.8 104.427L1438.19 90.7452L1464.21 80.5115L1491.39 73.9168L1519.21 71.084L1547.15 72.0658L1574.71 76.844L1601.35 85.3296L1626.6 97.3644L1649.97 112.724L1671.02 131.123L1689.38 152.218L1704.7 175.617L1716.68 200.883L1725.12 227.545L1729.84 255.108L1730.77 283.057L1727.88 310.872L1721.24 338.035L1710.95 364.04L1697.22 388.403L1680.3 410.669L1660.51 430.423L1638.21 447.299L1613.82 460.981L1587.8 471.215L1560.62 477.81L1532.8 480.642L1504.85 479.661L1477.3 474.882L1450.65 466.397L1425.41 454.362L1402.04 439.002L1380.98 420.603" stroke="#08F2DB" stroke-opacity="0.422222" stroke-width="16.58" stroke-linecap="round" stroke-linejoin="round"/>
<path d="M1383.41 379.214L1371.37 358.883L1362.21 337.102L1356.1 314.277L1353.15 290.831L1353.42 267.203L1356.91 243.832L1363.55 221.153L1373.21 199.59L1385.72 179.543L1400.84 161.387L1418.3 145.459L1437.76 132.056L1458.86 121.427L1481.22 113.772L1504.41 109.232L1528 107.892L1551.56 109.776L1574.63 114.851L1596.81 123.021L1617.66 134.134L1636.81 147.983L1653.89 164.31L1668.59 182.811L1680.63 203.141L1689.8 224.922L1695.91 247.748L1698.86 271.193L1698.58 294.822L1695.09 318.193L1688.46 340.871L1678.79 362.435L1666.28 382.481L1651.16 400.638L1633.7 416.566L1614.24 429.969L1593.14 440.597L1570.78 448.252L1547.59 452.793L1524 454.133L1500.45 452.248L1477.37 447.173L1455.2 439.004L1434.34 427.891L1415.2 414.042L1398.11 397.715L1383.41 379.214" stroke="#08F2DB" stroke-opacity="0.377778" stroke-width="16.58" stroke-linecap="round" stroke-linejoin="round"/>
<path d="M1394.9 347.144L1388.11 328.744L1383.89 309.592L1382.32 290.043L1383.42 270.462L1387.18 251.214L1393.52 232.657L1402.34 215.136L1413.45 198.979L1426.67 184.486L1441.73 171.928L1458.36 161.537L1476.26 153.508L1495.08 147.99L1514.47 145.086L1534.08 144.851L1553.54 147.288L1572.49 152.352L1590.57 159.948L1607.45 169.936L1622.81 182.13L1636.37 196.301L1647.87 212.186L1657.1 229.49L1663.89 247.889L1668.11 267.041L1669.68 286.59L1668.58 306.171L1664.82 325.419L1658.47 343.977L1649.66 361.497L1638.55 377.654L1625.33 392.147L1610.27 404.706L1593.64 415.096L1575.74 423.125L1556.92 428.643L1537.53 431.547L1517.92 431.782L1498.46 429.346L1479.51 424.282L1461.43 416.685L1444.55 406.697L1429.19 394.504L1415.63 380.332L1404.13 364.447L1394.9 347.144" stroke="#EA7DFF" stroke-opacity="0.333333" stroke-width="16.58" stroke-linecap="round" stroke-linejoin="round"/>
<path d="M1412.78 325.54L1410.05 309.864L1409.49 293.963L1411.09 278.134L1414.84 262.67L1420.65 247.86L1428.43 233.98L1438.03 221.288L1449.26 210.022L1461.93 200.39L1475.78 192.572L1490.58 186.713L1506.03 182.924L1521.85 181.274L1537.76 181.795L1553.44 184.476L1568.61 189.267L1582.99 196.08L1596.31 204.787L1608.32 215.227L1618.79 227.204L1627.53 240.496L1634.39 254.855L1639.22 270.013L1641.95 285.689L1642.52 301.589L1640.91 317.419L1637.17 332.883L1631.35 347.693L1623.57 361.573L1613.98 374.264L1602.74 385.531L1590.08 395.163L1576.22 402.981L1561.43 408.839L1545.97 412.629L1530.15 414.278L1514.25 413.758L1498.56 411.077L1483.39 406.286L1469.01 399.473L1455.7 390.766L1443.69 380.326L1433.21 368.349L1424.47 355.057L1417.62 340.698L1412.78 325.54" stroke="#08F2DB" stroke-opacity="0.288889" stroke-width="16.58" stroke-linecap="round" stroke-linejoin="round"/>
<path d="M1434.38 314.817L1434.5 302.291L1436.32 289.897L1439.81 277.867L1444.9 266.423L1451.51 255.78L1459.5 246.136L1468.73 237.67L1479.03 230.54L1490.21 224.879L1502.05 220.793L1514.34 218.356L1526.84 217.616L1539.33 218.585L1551.57 221.246L1563.34 225.548L1574.4 231.413L1584.57 238.73L1593.65 247.363L1601.46 257.152L1607.87 267.914L1612.76 279.449L1616.03 291.541L1617.62 303.966L1617.51 316.492L1615.69 328.886L1612.2 340.917L1607.1 352.36L1600.5 363.003L1592.5 372.647L1583.27 381.113L1572.97 388.243L1561.8 393.904L1549.95 397.99L1537.67 400.427L1525.16 401.167L1512.67 400.198L1500.43 397.537L1488.67 393.235L1477.6 387.37L1467.43 380.053L1458.36 371.42L1450.54 361.631L1444.13 350.869L1439.24 339.334L1435.97 327.242L1434.38 314.817" stroke="#08F2DB" stroke-opacity="0.244444" stroke-width="16.58" stroke-linecap="round" stroke-linejoin="round"/>
</g>
<defs>
<clipPath id="clip0_697_659">
<rect width="1920" height="490" fill="white"/>
</clipPath>
</defs>
</svg>
